<svg width="59" height="91" viewBox="0 0 59 91" fill="none" xmlns="http://www.w3.org/2000/svg">
<path d="M24.0493 34.9013L23.9585 35.1061C23.9585 35.1061 23.9525 35.076 23.9525 35.0579C23.9404 34.9977 23.9343 34.9374 23.9222 34.8772C23.9162 34.835 23.9101 34.7989 23.9101 34.7567L24.0493 34.9013Z" fill="url(#paint0_linear_3_9)"/>
<path d="M29.077 40.1901L29.0346 40.2865C29.0043 40.2082 28.9741 40.1299 28.9438 40.0516L29.077 40.1901Z" fill="url(#paint1_linear_3_9)"/>
<path d="M20.3648 40.3588C20.9274 40.9491 21.0847 41.8165 20.7641 42.5695L20.3648 43.4971L5.85051 77.3864C5.13659 79.049 2.75889 79.055 2.05707 77.3864C2.01472 77.2901 1.97237 77.1877 1.93607 77.0913C0.623194 73.8867 3.05176e-05 70.4471 3.05176e-05 66.9895V6.29477C3.05176e-05 5.18039 0.465891 4.10214 1.31896 3.39737C2.23858 2.63839 3.67851 2.21673 5.7537 3.58411L17.1763 11.6016C17.1763 11.6016 20.4495 14.0714 20.3648 18.3904V21.5046C20.3648 23.3599 18.0899 24.2574 16.8133 22.9142L12.5904 18.4747C12.2818 18.1554 11.8825 17.9386 11.4408 17.8663L11.1262 17.8121C10.7753 17.7518 10.4244 17.7217 10.0916 17.7217C8.72432 17.7217 7.48404 18.2398 6.58862 19.1674C5.11239 20.7155 5.13054 22.8238 5.14869 23.2274L5.16684 23.5888C5.19104 24.0767 5.3907 24.5406 5.72345 24.8959L20.3648 40.3708V40.3588Z" fill="url(#paint2_linear_3_9)"/>
<path d="M54.8868 71.8808C54.6145 72.3085 54.3604 72.7482 54.1305 73.206C53.5679 74.3204 51.6802 77.1093 45.8963 80.6332C43.7425 81.9464 41.5886 83.2595 39.459 84.6209C37.6984 85.7413 35.3872 87.1388 32.8704 88.4459C26.0156 91.9939 17.7753 91.8674 11.1565 87.958C11.8583 87.3737 12.427 86.6027 12.8081 85.7172L13.6007 83.874C15.1495 80.2597 17.4546 77.019 20.3648 74.3565L40.6085 61.7549L42.9983 64.2789L19.2031 77.0672L18.8159 77.537C16.9162 79.8802 17.1703 81.7355 17.7209 82.88C18.6526 84.8197 20.8851 85.5064 22.6638 85.5064H23.4261L52.7693 69.7966C53.5316 69.4171 54.1668 68.7906 54.6085 67.9834C55.7036 65.9595 55.3527 63.4536 53.7252 61.7429L32.6344 39.5576L35.5748 32.7207C38.5696 34.2869 42.4598 36.353 45.6906 38.2083C50.5368 40.9852 54.4391 45.1777 56.7018 50.2738C59.1824 55.8698 60.2593 63.5078 54.8868 71.8808Z" fill="url(#paint3_linear_3_9)"/>
<path d="M29.077 40.1901L29.0346 40.2865C29.0043 40.2082 28.9741 40.1299 28.9438 40.0516L29.077 40.1901Z" fill="url(#paint4_linear_3_9)"/>
<path d="M54.8868 71.8808C54.6145 72.3085 54.3604 72.7482 54.1305 73.206C53.5679 74.3204 51.6802 77.1093 45.8963 80.6332C43.7425 81.9464 41.5886 83.2595 39.459 84.6209C37.6984 85.7413 35.3872 87.1388 32.8704 88.4459C26.0156 91.9939 17.7753 91.8674 11.1565 87.958C11.8583 87.3737 12.427 86.6027 12.8081 85.7172L13.6007 83.874C15.1495 80.2597 17.4546 77.019 20.3648 74.3565L40.6085 61.7549L42.9983 64.2789L19.2031 77.0672L18.8159 77.537C16.9162 79.8802 17.1703 81.7355 17.7209 82.88C18.6526 84.8197 20.8851 85.5064 22.6638 85.5064H23.4261L52.7693 69.7966C53.5316 69.4171 54.1668 68.7906 54.6085 67.9834C55.7036 65.9595 55.3527 63.4536 53.7252 61.7429L32.6344 39.5576L35.5748 32.7207C38.5696 34.2869 42.4598 36.353 45.6906 38.2083C50.5368 40.9852 54.4391 45.1777 56.7018 50.2738C59.1824 55.8698 60.2593 63.5078 54.8868 71.8808Z" fill="url(#paint5_linear_3_9)"/>
<path d="M24.0493 34.9013L23.9585 35.1061C23.9585 35.1061 23.9525 35.076 23.9525 35.0579C23.9404 34.9977 23.9343 34.9374 23.9222 34.8772C23.9162 34.835 23.9101 34.7989 23.9101 34.7567L24.0493 34.9013Z" fill="url(#paint6_linear_3_9)"/>
<path d="M29.077 40.1901L29.0346 40.2865C29.0043 40.2082 28.9741 40.1299 28.9438 40.0516L29.077 40.1901Z" fill="url(#paint7_linear_3_9)"/>
<path d="M51.9465 66.5438C51.8133 66.7968 51.6318 67.0016 51.3898 67.11L22.6638 82.4945C22.6638 82.4945 18.6828 82.4945 21.1694 79.4345L47.2757 65.4053C47.5904 65.2306 47.6569 64.815 47.4149 64.556L43.2222 60.1285L38.255 54.8759L32.1383 48.4064L27.6007 43.6176L24.8479 40.7082L22.5852 38.3107L20.3648 35.9675L8.17376 23.0828C8.17376 23.0828 8.04066 20.342 10.618 20.7757L20.3648 31.0281L23.3898 34.2086L23.9101 34.7567C23.9101 34.7989 23.9162 34.835 23.9222 34.8772C23.9343 34.9374 23.9404 34.9977 23.9525 35.0579C23.9525 35.076 23.9525 35.088 23.9585 35.1061L24.0493 34.9013L26.3181 37.2867L28.9439 40.0516C28.9741 40.1299 29.0044 40.2082 29.0346 40.2865L29.077 40.1901L45.7632 57.7432L46.2412 58.2492L51.529 63.809C52.2308 64.5439 52.4305 65.6583 51.9465 66.5438Z" fill="url(#paint8_linear_3_9)"/>
<path d="M24.0493 34.9013L23.9585 35.1061C23.9585 35.1061 23.9525 35.076 23.9525 35.0579C23.9404 34.9977 23.9343 34.9374 23.9222 34.8772C23.9162 34.835 23.9101 34.7989 23.9101 34.7567L24.0493 34.9013Z" fill="url(#paint9_linear_3_9)"/>
<path d="M29.077 40.1901L29.0346 40.2865C29.0043 40.2082 28.9741 40.1299 28.9438 40.0516L29.077 40.1901Z" fill="url(#paint10_linear_3_9)"/>
<path d="M29.077 40.1901L29.0346 40.2865C29.0043 40.2082 28.9741 40.1299 28.9438 40.0516L29.077 40.1901Z" fill="url(#paint11_linear_3_9)"/>
<path d="M27.6007 43.6116C27.51 43.8344 27.4192 44.0513 27.3224 44.2621C26.9836 45.0573 26.6448 45.8464 26.306 46.6355C25.3259 48.9184 24.3518 51.1954 23.3898 53.4302C22.3553 55.8336 21.3449 58.1889 20.3648 60.4719C15.2827 72.3085 11.1262 81.9765 10.0311 84.5305C9.75284 85.1691 9.28093 85.7232 8.65777 86.0365C8.60332 86.0606 8.54887 86.0907 8.49442 86.1087C7.83495 86.3738 7.07264 86.2895 6.65518 84.91C6.60073 84.7173 6.56442 84.5185 6.54627 84.3137C6.50997 83.8197 6.59468 83.3198 6.79433 82.856L20.3648 51.1773L23.3898 44.1176L23.5532 43.732L24.8479 40.7081L27.6007 43.6116Z" fill="url(#paint12_linear_3_9)"/>
<path d="M45.1461 2.18058C45.1401 2.59019 45.0554 2.99378 44.892 3.36725C43.8877 5.70444 39.465 16.005 34.0744 28.5523C33.6811 29.4619 33.2878 30.3896 32.8825 31.3232C32.0597 33.2388 31.2187 35.1965 30.3717 37.1783C29.9421 38.1782 29.5065 39.1842 29.077 40.1901L29.0346 40.2865C29.0044 40.2082 28.9741 40.1299 28.9439 40.0516L26.3181 37.2867L27.1288 35.3952L27.6068 34.2688L29.2464 30.4498L30.5713 27.3596L42.0666 0.524062C42.0666 0.524062 42.9015 0 43.7062 0C44.4443 0 45.1582 0.451777 45.1461 2.18058Z" fill="url(#paint13_linear_3_9)"/>
<path d="M24.0493 34.9013L23.9585 35.1061C23.9585 35.1061 23.9525 35.076 23.9525 35.0579L24.0493 34.9013Z" fill="url(#paint14_linear_3_9)"/>
<path d="M29.077 40.1901L29.0346 40.2865C29.0043 40.2082 28.9741 40.1299 28.9438 40.0516L29.077 40.1901Z" fill="url(#paint15_linear_3_9)"/>
<defs>
<linearGradient id="paint0_linear_3_9" x1="23.9767" y1="1.25304" x2="23.9767" y2="73.2239" gradientUnits="userSpaceOnUse">
<stop stop-color="#27AAE1"/>
<stop offset="1" stop-color="#2B3990"/>
</linearGradient>
<linearGradient id="paint1_linear_3_9" x1="29.0104" y1="1.25298" x2="29.0104" y2="73.224" gradientUnits="userSpaceOnUse">
<stop stop-color="#27AAE1"/>
<stop offset="1" stop-color="#2B3990"/>
</linearGradient>
<linearGradient id="paint2_linear_3_9" x1="10.4607" y1="1.30112" x2="10.4607" y2="70.8086" gradientUnits="userSpaceOnUse">
<stop stop-color="#27AAE1"/>
<stop offset="1" stop-color="#2B3990"/>
</linearGradient>
<linearGradient id="paint3_linear_3_9" x1="34.9516" y1="1.2469" x2="34.9516" y2="73.218" gradientUnits="userSpaceOnUse">
<stop stop-color="#27AAE1"/>
<stop offset="1" stop-color="#2B3990"/>
</linearGradient>
<linearGradient id="paint4_linear_3_9" x1="29.0104" y1="1.25298" x2="29.0104" y2="73.224" gradientUnits="userSpaceOnUse">
<stop stop-color="#27AAE1"/>
<stop offset="1" stop-color="#2B3990"/>
</linearGradient>
<linearGradient id="paint5_linear_3_9" x1="34.9516" y1="1.2469" x2="34.9516" y2="73.218" gradientUnits="userSpaceOnUse">
<stop stop-color="#27AAE1"/>
<stop offset="1" stop-color="#2B3990"/>
</linearGradient>
<linearGradient id="paint6_linear_3_9" x1="23.9767" y1="1.25304" x2="23.9767" y2="73.2239" gradientUnits="userSpaceOnUse">
<stop stop-color="#27AAE1"/>
<stop offset="1" stop-color="#2B3990"/>
</linearGradient>
<linearGradient id="paint7_linear_3_9" x1="29.0104" y1="1.25298" x2="29.0104" y2="73.224" gradientUnits="userSpaceOnUse">
<stop stop-color="#27AAE1"/>
<stop offset="1" stop-color="#2B3990"/>
</linearGradient>
<linearGradient id="paint8_linear_3_9" x1="30.1902" y1="1.25293" x2="30.1902" y2="73.2241" gradientUnits="userSpaceOnUse">
<stop stop-color="#27AAE1"/>
<stop offset="1" stop-color="#2B3990"/>
</linearGradient>
<linearGradient id="paint9_linear_3_9" x1="23.9767" y1="1.25304" x2="23.9767" y2="73.2239" gradientUnits="userSpaceOnUse">
<stop stop-color="#27AAE1"/>
<stop offset="1" stop-color="#2B3990"/>
</linearGradient>
<linearGradient id="paint10_linear_3_9" x1="29.0104" y1="1.25298" x2="29.0104" y2="73.224" gradientUnits="userSpaceOnUse">
<stop stop-color="#27AAE1"/>
<stop offset="1" stop-color="#2B3990"/>
</linearGradient>
<linearGradient id="paint11_linear_3_9" x1="29.0104" y1="1.25298" x2="29.0104" y2="73.224" gradientUnits="userSpaceOnUse">
<stop stop-color="#27AAE1"/>
<stop offset="1" stop-color="#2B3990"/>
</linearGradient>
<linearGradient id="paint12_linear_3_9" x1="17.0674" y1="1.25293" x2="17.0674" y2="73.2241" gradientUnits="userSpaceOnUse">
<stop stop-color="#27AAE1"/>
<stop offset="1" stop-color="#2B3990"/>
</linearGradient>
<linearGradient id="paint13_linear_3_9" x1="35.7321" y1="1.25293" x2="35.7321" y2="73.2241" gradientUnits="userSpaceOnUse">
<stop stop-color="#27AAE1"/>
<stop offset="1" stop-color="#2B3990"/>
</linearGradient>
<linearGradient id="paint14_linear_3_9" x1="24.0009" y1="1.25292" x2="24.0009" y2="73.2241" gradientUnits="userSpaceOnUse">
<stop stop-color="#27AAE1"/>
<stop offset="1" stop-color="#2B3990"/>
</linearGradient>
<linearGradient id="paint15_linear_3_9" x1="29.0104" y1="1.25298" x2="29.0104" y2="73.224" gradientUnits="userSpaceOnUse">
<stop stop-color="#27AAE1"/>
<stop offset="1" stop-color="#2B3990"/>
</linearGradient>
</defs>
</svg>
